<?xml version="1.0" encoding="UTF-8" standalone="no"?>
<!-- Created with Inkscape (http://www.inkscape.org/) -->

<svg
   xmlns:dc="http://purl.org/dc/elements/1.1/"
   xmlns:cc="http://creativecommons.org/ns#"
   xmlns:rdf="http://www.w3.org/1999/02/22-rdf-syntax-ns#"
   xmlns:svg="http://www.w3.org/2000/svg"
   xmlns="http://www.w3.org/2000/svg"
   xmlns:sodipodi="http://sodipodi.sourceforge.net/DTD/sodipodi-0.dtd"
   xmlns:inkscape="http://www.inkscape.org/namespaces/inkscape"
   width="16"
   height="16"
   viewBox="0 0 4.2333332 4.2333335"
   version="1.1"
   id="svg1155"
   inkscape:version="0.92.3 (2405546, 2018-03-11)"
   sodipodi:docname="database_dark.svg">
  <defs
     id="defs1149" />
  <sodipodi:namedview
     id="base"
     pagecolor="#ffffff"
     bordercolor="#666666"
     borderopacity="1.0"
     inkscape:pageopacity="0.0"
     inkscape:pageshadow="2"
     inkscape:zoom="22.4"
     inkscape:cx="0.79708298"
     inkscape:cy="7.2835919"
     inkscape:document-units="px"
     inkscape:current-layer="g1039"
     showgrid="true"
     units="px"
     inkscape:pagecheckerboard="true"
     inkscape:window-width="1920"
     inkscape:window-height="1027"
     inkscape:window-x="-8"
     inkscape:window-y="-8"
     inkscape:window-maximized="1"
     inkscape:snap-nodes="false"
     inkscape:snap-others="false"
     inkscape:snap-bbox="true"
     inkscape:bbox-paths="true"
     inkscape:bbox-nodes="true"
     inkscape:snap-bbox-edge-midpoints="true">
    <inkscape:grid
       type="xygrid"
       id="grid1700"
       dotted="false"
       color="#ff3f3f"
       opacity="0.1254902"
       empcolor="#ff3f3f"
       empopacity="0.35294118" />
  </sodipodi:namedview>
  <metadata
     id="metadata1152">
    <rdf:RDF>
      <cc:Work
         rdf:about="">
        <dc:format>image/svg+xml</dc:format>
        <dc:type
           rdf:resource="http://purl.org/dc/dcmitype/StillImage" />
        <dc:title></dc:title>
      </cc:Work>
    </rdf:RDF>
  </metadata>
  <g
     inkscape:label="Layer 1"
     inkscape:groupmode="layer"
     id="layer1"
     transform="translate(0,-292.76665)">
    <g
       id="g1039">
      <path
         inkscape:connector-curvature="0"
         id="path946"
         d="M 4.1640868,293.16301 A 2.1166667,0.52916544 0 0 1 2.1166667,293.5604 2.1166667,0.52916544 0 0 1 0.06924652,293.16404 2.1166667,0.52916544 0 0 0 3.4999997e-8,293.29582 2.1166667,0.52916544 0 0 0 2.1166667,293.82498 a 2.1166667,0.52916544 0 0 0 2.1166666,-0.52916 2.1166667,0.52916544 0 0 0 -0.069247,-0.13281 z"
         style="fill:#ffffff;fill-opacity:1;stroke:none;stroke-width:0.26458332;stroke-linecap:round;stroke-linejoin:round;stroke-miterlimit:4;stroke-dasharray:none;stroke-opacity:1;paint-order:normal" />
      <path
         inkscape:connector-curvature="0"
         id="path946-1"
         d="m 4.1640868,293.42862 a 2.1166667,0.52916543 0 0 0 -2.04742,-0.39739 2.1166667,0.52916543 0 0 0 -2.04742017,0.39636 2.1166667,0.52916543 0 0 1 -0.0692465,-0.13178 2.1166667,0.52916543 0 0 1 2.11666657,-0.52916 2.1166667,0.52916543 0 0 1 2.1166665,0.52916 2.1166667,0.52916543 0 0 1 -0.069246,0.13281 z"
         style="fill:#ffffff;fill-opacity:1;stroke:none;stroke-width:0.26458332;stroke-linecap:round;stroke-linejoin:round;stroke-miterlimit:4;stroke-dasharray:none;stroke-opacity:1;paint-order:normal" />
      <path
         inkscape:connector-curvature="0"
         id="path946-8"
         d="m 4.1640867,294.22135 a 2.1166667,0.52916543 0 0 1 -2.04742,0.39739 2.1166667,0.52916543 0 0 1 -2.04742011,-0.39636 2.1166667,0.52916543 0 0 0 -0.06924648,0.13178 2.1166667,0.52916543 0 0 0 2.11666659,0.52916 2.1166667,0.52916543 0 0 0 2.1166665,-0.52916 2.1166667,0.52916543 0 0 0 -0.069246,-0.13281 z"
         style="fill:#ffffff;fill-opacity:1;stroke:none;stroke-width:0.26458332;stroke-linecap:round;stroke-linejoin:round;stroke-miterlimit:4;stroke-dasharray:none;stroke-opacity:1;paint-order:normal" />
      <path
         inkscape:connector-curvature="0"
         id="path946-9"
         d="m 4.1640868,295.27968 a 2.1166667,0.52916543 0 0 1 -2.04742,0.39739 2.1166667,0.52916543 0 0 1 -2.04742019,-0.39636 2.1166667,0.52916543 0 0 0 -0.0692465,0.13178 2.1166667,0.52916543 0 0 0 2.11666659,0.52916 2.1166667,0.52916543 0 0 0 2.1166665,-0.52916 2.1166667,0.52916543 0 0 0 -0.069246,-0.13281 z"
         style="fill:#ffffff;fill-opacity:1;stroke:none;stroke-width:0.26458332;stroke-linecap:round;stroke-linejoin:round;stroke-miterlimit:4;stroke-dasharray:none;stroke-opacity:1;paint-order:normal" />
      <path
         inkscape:connector-curvature="0"
         id="path946-2"
         d="M 4.1640867,296.33801 A 2.1166667,0.52916543 0 0 1 2.1166667,296.7354 2.1166667,0.52916543 0 0 1 0.06924662,296.33904 2.1166667,0.52916543 0 0 0 1.425e-7,296.47082 2.1166667,0.52916543 0 0 0 2.1166667,296.99998 2.1166667,0.52916543 0 0 0 4.2333332,296.47082 2.1166667,0.52916543 0 0 0 4.1640867,296.33801 Z"
         style="fill:#ffffff;fill-opacity:1;stroke:none;stroke-width:0.26458332;stroke-linecap:round;stroke-linejoin:round;stroke-miterlimit:4;stroke-dasharray:none;stroke-opacity:1;paint-order:normal" />
      <path
         inkscape:connector-curvature="0"
         id="path1015"
         d="m 0.13229166,293.29581 v 3.175"
         style="fill:none;stroke:#ffffff;stroke-width:0.26458332px;stroke-linecap:butt;stroke-linejoin:miter;stroke-opacity:1" />
      <path
         inkscape:connector-curvature="0"
         id="path1015-0"
         d="m 4.1010417,293.29582 v 3.175"
         style="fill:none;stroke:#ffffff;stroke-width:0.26458332px;stroke-linecap:butt;stroke-linejoin:miter;stroke-opacity:1" />
    </g>
  <title>Databases</title>
  </g>
</svg>
