<?xml version="1.0" encoding="UTF-8" standalone="no"?>
<!-- Created with Inkscape (http://www.inkscape.org/) -->

<svg
   xmlns:dc="http://purl.org/dc/elements/1.1/"
   xmlns:cc="http://creativecommons.org/ns#"
   xmlns:rdf="http://www.w3.org/1999/02/22-rdf-syntax-ns#"
   xmlns:svg="http://www.w3.org/2000/svg"
   xmlns="http://www.w3.org/2000/svg"
   xmlns:sodipodi="http://sodipodi.sourceforge.net/DTD/sodipodi-0.dtd"
   xmlns:inkscape="http://www.inkscape.org/namespaces/inkscape"
   width="16"
   height="16"
   viewBox="0 0 4.2333332 4.2333335"
   version="1.1"
   id="svg1155"
   inkscape:version="0.92.3 (2405546, 2018-03-11)"
   sodipodi:docname="query_light.svg">
  <defs
     id="defs1149" />
  <sodipodi:namedview
     id="base"
     pagecolor="#ffffff"
     bordercolor="#666666"
     borderopacity="1.0"
     inkscape:pageopacity="0.0"
     inkscape:pageshadow="2"
     inkscape:zoom="22.4"
     inkscape:cx="14.275873"
     inkscape:cy="6.1546004"
     inkscape:document-units="px"
     inkscape:current-layer="g1039"
     showgrid="true"
     units="px"
     inkscape:pagecheckerboard="true"
     inkscape:window-width="1920"
     inkscape:window-height="1027"
     inkscape:window-x="-8"
     inkscape:window-y="-8"
     inkscape:window-maximized="1"
     inkscape:snap-nodes="false"
     inkscape:snap-others="false"
     inkscape:snap-bbox="true"
     inkscape:bbox-paths="true"
     inkscape:bbox-nodes="true"
     inkscape:snap-bbox-edge-midpoints="true"
     inkscape:snap-bbox-midpoints="false"
     inkscape:snap-object-midpoints="true">
    <inkscape:grid
       type="xygrid"
       id="grid1700"
       dotted="false"
       color="#ff3f3f"
       opacity="0.1254902"
       empcolor="#ff3f3f"
       empopacity="0.35294118" />
  </sodipodi:namedview>
  <metadata
     id="metadata1152">
    <rdf:RDF>
      <cc:Work
         rdf:about="">
        <dc:format>image/svg+xml</dc:format>
        <dc:type
           rdf:resource="http://purl.org/dc/dcmitype/StillImage" />
        <dc:title></dc:title>
      </cc:Work>
    </rdf:RDF>
  </metadata>
  <g
     inkscape:label="Layer 1"
     inkscape:groupmode="layer"
     id="layer1"
     transform="translate(0,-292.76665)">
    <g
       id="g1039">
      <path
         inkscape:connector-curvature="0"
         id="path946"
         d="m 4.1640867,293.16301 a 2.1166667,0.5291664 0 0 1 -2.04742,0.39739 2.1166667,0.5291664 0 0 1 -2.04742018,-0.39636 2.1166667,0.5291664 0 0 0 -0.069246485,0.13178 A 2.1166667,0.5291664 0 0 0 2.1166667,293.82498 a 2.1166667,0.5291664 0 0 0 2.1166665,-0.52916 2.1166667,0.5291664 0 0 0 -0.069246,-0.13281 z"
         style="fill:#000000;fill-opacity:1;stroke:none;stroke-width:0.26458332;stroke-linecap:round;stroke-linejoin:round;stroke-miterlimit:4;stroke-dasharray:none;stroke-opacity:1;paint-order:normal" />
      <path
         inkscape:connector-curvature="0"
         id="path946-1"
         d="m 4.1640867,293.42862 a 2.1166667,0.52916639 0 0 0 -2.0474199,-0.39739 2.1166667,0.52916639 0 0 0 -2.04742017,0.39636 2.1166667,0.52916639 0 0 1 -0.0692465,-0.13177 2.1166667,0.52916639 0 0 1 2.11666657,-0.52917 2.1166667,0.52916639 0 0 1 2.1166664,0.52917 2.1166667,0.52916639 0 0 1 -0.069246,0.1328 z"
         style="fill:#000000;fill-opacity:1;stroke:none;stroke-width:0.26458332;stroke-linecap:round;stroke-linejoin:round;stroke-miterlimit:4;stroke-dasharray:none;stroke-opacity:1;paint-order:normal" />
      <path
         style="fill:#000000;fill-opacity:1;stroke:none;stroke-width:0.99999994;stroke-linecap:round;stroke-linejoin:round;stroke-miterlimit:4;stroke-dasharray:none;stroke-opacity:1;paint-order:normal"
         d="M 0.26171875,5.5019531 A 8.0000001,1.9999989 0 0 0 0,6 8.0000001,1.9999989 0 0 0 5.9277344,7.9316406 6.9196426,6.9196426 0 0 1 6.5292969,6.9628906 8.0000001,1.9999989 0 0 1 0.26171875,5.5019531 Z"
         transform="matrix(0.26458333,0,0,0.26458333,0,292.76665)"
         id="path946-8"
         inkscape:connector-curvature="0" />
      <path
         style="fill:#000000;fill-opacity:1;stroke:none;stroke-width:0.99999994;stroke-linecap:round;stroke-linejoin:round;stroke-miterlimit:4;stroke-dasharray:none;stroke-opacity:1;paint-order:normal"
         d="M 0.26171875,9.5019531 A 8.0000001,1.9999989 0 0 0 0,10 8.0000001,1.9999989 0 0 0 5.2246094,11.873047 6.9196426,6.9196426 0 0 1 5.1601562,11 6.9196426,6.9196426 0 0 1 5.1660156,10.867188 8.0000001,1.9999989 0 0 1 0.26171875,9.5019531 Z"
         transform="matrix(0.26458333,0,0,0.26458333,0,292.76665)"
         id="path946-9"
         inkscape:connector-curvature="0" />
      <path
         style="fill:#000000;fill-opacity:1;stroke:none;stroke-width:0.99999994;stroke-linecap:round;stroke-linejoin:round;stroke-miterlimit:4;stroke-dasharray:none;stroke-opacity:1;paint-order:normal"
         d="M 0.26171875,13.501953 A 8.0000001,1.9999989 0 0 0 0,14 8.0000001,1.9999989 0 0 0 7.2109375,15.988281 6.9196426,6.9196426 0 0 1 6.3554688,14.955078 8.0000001,1.9999989 0 0 1 0.26171875,13.501953 Z"
         transform="matrix(0.26458333,0,0,0.26458333,0,292.76665)"
         id="path946-2"
         inkscape:connector-curvature="0" />
      <path
         inkscape:connector-curvature="0"
         id="rect843"
         d="m 0,293.29581 h 0.26458332 v 3.17498 H 0 Z"
         style="fill:#000000;fill-opacity:1;stroke:none;stroke-width:0.26458332;stroke-linecap:round;stroke-linejoin:round;stroke-miterlimit:4;stroke-dasharray:none;stroke-opacity:1;paint-order:normal" />
      <path
         style="fill:#000000;fill-opacity:1;stroke:none;stroke-width:0.99999994;stroke-linecap:round;stroke-linejoin:round;stroke-miterlimit:4;stroke-dasharray:none;stroke-opacity:1;paint-order:normal"
         d="m 15,2 v 4.1386719 a 6.9196426,6.9196426 0 0 1 1,1.2929687 V 2 Z"
         transform="matrix(0.26458333,0,0,0.26458333,0,292.76665)"
         id="rect843-6"
         inkscape:connector-curvature="0" />
      <g
         id="g886"
         transform="rotate(-38.275915,4.3327085,302.48823)"
         style="display:inline">
        <path
           transform="matrix(0.26458333,0,0,0.26458333,1.2249999e-7,292.76665)"
           inkscape:connector-curvature="0"
           id="path860"
           d="m 28,8 a 4.0000002,4.0000137 0 0 0 -4,4 4.0000002,4.0000137 0 0 0 4,4 4.0000002,4.0000137 0 0 0 4,-4 4.0000002,4.0000137 0 0 0 -4,-4 z m 0,1 a 2.9999885,2.9999986 0 0 1 3,3 2.9999885,2.9999986 0 0 1 -3,3 2.9999885,2.9999986 0 0 1 -3,-3 2.9999885,2.9999986 0 0 1 3,-3 z"
           style="fill:#000000;fill-opacity:1;stroke:none;stroke-width:1;stroke-linecap:round;stroke-linejoin:round;stroke-miterlimit:4;stroke-dasharray:none;stroke-opacity:1;paint-order:normal" />
        <rect
           y="296.73541"
           x="7.2760415"
           height="1.0583208"
           width="0.26458341"
           id="rect878"
           style="fill:#000000;fill-opacity:1;stroke:none;stroke-width:0.26458332;stroke-linecap:round;stroke-linejoin:round;stroke-miterlimit:4;stroke-dasharray:none;stroke-opacity:1;paint-order:normal" />
      </g>
    </g>
  </g>
</svg>
