<?xml version="1.0" encoding="UTF-8" standalone="no"?>
<!-- Created with Inkscape (http://www.inkscape.org/) -->

<svg
   xmlns:dc="http://purl.org/dc/elements/1.1/"
   xmlns:cc="http://creativecommons.org/ns#"
   xmlns:rdf="http://www.w3.org/1999/02/22-rdf-syntax-ns#"
   xmlns:svg="http://www.w3.org/2000/svg"
   xmlns="http://www.w3.org/2000/svg"
   xmlns:sodipodi="http://sodipodi.sourceforge.net/DTD/sodipodi-0.dtd"
   xmlns:inkscape="http://www.inkscape.org/namespaces/inkscape"
   width="16"
   height="16"
   viewBox="0 0 4.2333332 4.2333335"
   version="1.1"
   id="svg1155"
   inkscape:version="0.92.3 (2405546, 2018-03-11)"
   sodipodi:docname="query_dark.svg">
  <defs
     id="defs1149" />
  <sodipodi:namedview
     id="base"
     pagecolor="#ffffff"
     bordercolor="#666666"
     borderopacity="1.0"
     inkscape:pageopacity="0.0"
     inkscape:pageshadow="2"
     inkscape:zoom="22.4"
     inkscape:cx="14.275873"
     inkscape:cy="6.1546004"
     inkscape:document-units="px"
     inkscape:current-layer="layer1"
     showgrid="true"
     units="px"
     inkscape:pagecheckerboard="true"
     inkscape:window-width="1920"
     inkscape:window-height="1027"
     inkscape:window-x="-8"
     inkscape:window-y="-8"
     inkscape:window-maximized="1"
     inkscape:snap-nodes="false"
     inkscape:snap-others="false"
     inkscape:snap-bbox="true"
     inkscape:bbox-paths="true"
     inkscape:bbox-nodes="true"
     inkscape:snap-bbox-edge-midpoints="true"
     inkscape:snap-bbox-midpoints="false"
     inkscape:snap-object-midpoints="true">
    <inkscape:grid
       type="xygrid"
       id="grid1700"
       dotted="false"
       color="#ff3f3f"
       opacity="0.1254902"
       empcolor="#ff3f3f"
       empopacity="0.35294118" />
  </sodipodi:namedview>
  <metadata
     id="metadata1152">
    <rdf:RDF>
      <cc:Work
         rdf:about="">
        <dc:format>image/svg+xml</dc:format>
        <dc:type
           rdf:resource="http://purl.org/dc/dcmitype/StillImage" />
        <dc:title></dc:title>
      </cc:Work>
    </rdf:RDF>
  </metadata>
  <g
     inkscape:label="Layer 1"
     inkscape:groupmode="layer"
     id="layer1"
     transform="translate(0,-292.76665)">
    <path
       style="fill:#ffffff;fill-opacity:1;stroke:none;stroke-width:0.26458332;stroke-linecap:round;stroke-linejoin:round;stroke-miterlimit:4;stroke-dasharray:none;stroke-opacity:1;paint-order:normal"
       d="m 4.1640867,293.16301 a 2.1166667,0.5291664 0 0 1 -2.04742,0.39739 2.1166667,0.5291664 0 0 1 -2.04742018,-0.39636 2.1166667,0.5291664 0 0 0 -0.069246485,0.13178 A 2.1166667,0.5291664 0 0 0 2.1166667,293.82498 a 2.1166667,0.5291664 0 0 0 2.1166665,-0.52916 2.1166667,0.5291664 0 0 0 -0.069246,-0.13281 z"
       id="path946"
       inkscape:connector-curvature="0" />
    <path
       style="fill:#ffffff;fill-opacity:1;stroke:none;stroke-width:0.26458332;stroke-linecap:round;stroke-linejoin:round;stroke-miterlimit:4;stroke-dasharray:none;stroke-opacity:1;paint-order:normal"
       d="m 4.1640867,293.42862 a 2.1166667,0.52916639 0 0 0 -2.0474199,-0.39739 2.1166667,0.52916639 0 0 0 -2.04742017,0.39636 2.1166667,0.52916639 0 0 1 -0.0692465,-0.13177 2.1166667,0.52916639 0 0 1 2.11666657,-0.52917 2.1166667,0.52916639 0 0 1 2.1166664,0.52917 2.1166667,0.52916639 0 0 1 -0.069246,0.1328 z"
       id="path946-1"
       inkscape:connector-curvature="0" />
    <path
       inkscape:connector-curvature="0"
       id="path946-8"
       d="M 0.06924642,294.22238 A 2.1166667,0.52916637 0 0 0 0,294.35415 a 2.1166667,0.52916637 0 0 0 1.5683797,0.51108 1.8308221,1.8308221 0 0 1 0.1591634,-0.25632 2.1166667,0.52916637 0 0 1 -1.65829668,-0.38653 z"
       style="fill:#ffffff;fill-opacity:1;stroke:none;stroke-width:0.26458332;stroke-linecap:round;stroke-linejoin:round;stroke-miterlimit:4;stroke-dasharray:none;stroke-opacity:1;paint-order:normal" />
    <path
       inkscape:connector-curvature="0"
       id="path946-9"
       d="M 0.06924642,295.28071 A 2.1166667,0.52916637 0 0 0 0,295.41248 a 2.1166667,0.52916637 0 0 0 1.3823446,0.49558 1.8308221,1.8308221 0 0 1 -0.017053,-0.23099 1.8308221,1.8308221 0 0 1 0.00155,-0.0351 2.1166667,0.52916637 0 0 1 -1.29759518,-0.36122 z"
       style="fill:#ffffff;fill-opacity:1;stroke:none;stroke-width:0.26458332;stroke-linecap:round;stroke-linejoin:round;stroke-miterlimit:4;stroke-dasharray:none;stroke-opacity:1;paint-order:normal" />
    <path
       inkscape:connector-curvature="0"
       id="path946-2"
       d="M 0.06924642,296.33904 A 2.1166667,0.52916637 0 0 0 0,296.47082 a 2.1166667,0.52916637 0 0 0 1.9078939,0.52606 1.8308221,1.8308221 0 0 1 -0.2263428,-0.27337 2.1166667,0.52916637 0 0 1 -1.61230468,-0.38447 z"
       style="fill:#ffffff;fill-opacity:1;stroke:none;stroke-width:0.26458332;stroke-linecap:round;stroke-linejoin:round;stroke-miterlimit:4;stroke-dasharray:none;stroke-opacity:1;paint-order:normal" />
    <path
       style="fill:#ffffff;fill-opacity:1;stroke:none;stroke-width:0.26458332;stroke-linecap:round;stroke-linejoin:round;stroke-miterlimit:4;stroke-dasharray:none;stroke-opacity:1;paint-order:normal"
       d="m 0,293.29581 h 0.26458332 v 3.17498 H 0 Z"
       id="rect843"
       inkscape:connector-curvature="0" />
    <path
       inkscape:connector-curvature="0"
       id="rect843-6"
       d="m 3.96875,293.29582 v 1.09502 a 1.8308221,1.8308221 0 0 1 0.2645833,0.3421 v -1.43712 z"
       style="fill:#ffffff;fill-opacity:1;stroke:none;stroke-width:0.26458332;stroke-linecap:round;stroke-linejoin:round;stroke-miterlimit:4;stroke-dasharray:none;stroke-opacity:1;paint-order:normal" />
    <path
       inkscape:connector-curvature="0"
       id="path860"
       d="m 2.0363307,294.6129 a 1.0583369,1.0583334 51.724085 0 0 -0.1752471,1.48641 1.0583369,1.0583334 51.724085 0 0 1.4864143,0.17525 1.0583369,1.0583334 51.724085 0 0 0.175247,-1.48642 1.0583369,1.0583334 51.724085 0 0 -1.4864142,-0.17524 z m 0.1638959,0.2077 a 0.79374962,0.79374694 51.724085 0 1 1.1148107,0.13144 0.79374962,0.79374694 51.724085 0 1 -0.1314353,1.11481 0.79374962,0.79374694 51.724085 0 1 -1.1148107,-0.13144 0.79374962,0.79374694 51.724085 0 1 0.1314353,-1.11481 z"
       style="fill:#ffffff;fill-opacity:1;stroke:none;stroke-width:0.26458332;stroke-linecap:round;stroke-linejoin:round;stroke-miterlimit:4;stroke-dasharray:none;stroke-opacity:1;paint-order:normal" />
    <rect
       transform="rotate(-38.275915)"
       y="234.39548"
       x="-181.03139"
       height="1.0583208"
       width="0.26458341"
       id="rect878"
       style="fill:#ffffff;fill-opacity:1;stroke:none;stroke-width:0.26458332;stroke-linecap:round;stroke-linejoin:round;stroke-miterlimit:4;stroke-dasharray:none;stroke-opacity:1;paint-order:normal" />
  </g>
</svg>
